# xmcd
#
# Track frame offsets: 
#        150
#        19710
#        42358
#        52831
#        62381
#        77805
#        92028
#        106366
#        117686
#        128767
#        150236
#        166312
#
# Disc length: 2367 seconds
#
# Revision: 0
# Processed by: cddbd v1.5.2PL0 Copyright (c) Steve Scherf et al.
# Submitted via: ExactAudioCopy v1.0b4
#
DISCID=8c093d0c
DTITLE=Atomic Road Kings - Clean Up The Blood
DYEAR=2019
DGENRE=Blues
TTITLE0=I've Got Time
TTITLE1=Rumors
TTITLE2=In Arms Reach
TTITLE3=Have Your Way
TTITLE4=My Way Back Home
TTITLE5=Clean Up The Blood
TTITLE6=Candy Man
TTITLE7=Ain't For Me
TTITLE8=You Got To Change
TTITLE9=Two Sided Story
TTITLE10=Vibrations
TTITLE11=Back Down South
EXTD=
EXTT0=
EXTT1=
EXTT2=
EXTT3=
EXTT4=
EXTT5=
EXTT6=
EXTT7=
EXTT8=
EXTT9=
EXTT10=
EXTT11=
PLAYORDER=
